<svg xmlns="http://www.w3.org/2000/svg" width="44.447" height="38.473" viewBox="0 0 44.447 38.473">
  <g id="Group_47089" data-name="Group 47089" transform="translate(13370.678 -9786)">
    <g id="Group_45940" data-name="Group 45940" transform="translate(-13370.678 9786)">
      <g id="Group_45937" data-name="Group 45937">
        <path id="Path_83230" data-name="Path 83230" d="M487.916,446.984l-15.42-2.123a6.78,6.78,0,0,1-5.8-6.145l-1.268-16.025,32.164,4.428,2.517-7.363,8.591,1.183a1.36,1.36,0,1,1-.371,2.694l-6.372-.877-6.747,19.731A6.752,6.752,0,0,1,487.916,446.984Zm-19.509-21.138,1,12.655a4.044,4.044,0,0,0,3.459,3.665l15.42,2.123a4.027,4.027,0,0,0,4.352-2.682l4.057-11.867Z" transform="translate(-465.429 -419.756)" fill="#036"/>
      </g>
      <g id="Group_45938" data-name="Group 45938" transform="translate(2.536 27.545)">
        <path id="Path_83231" data-name="Path 83231" d="M485.2,600.979a4.544,4.544,0,1,1,5.122-3.882A4.549,4.549,0,0,1,485.2,600.979Zm.958-6.961a2.482,2.482,0,1,0,2.121,2.8A2.485,2.485,0,0,0,486.162,594.018Z" transform="translate(-481.279 -591.932)" fill="#036"/>
      </g>
      <g id="Group_45939" data-name="Group 45939" transform="translate(15.896 29.384)">
        <path id="Path_83232" data-name="Path 83232" d="M568.718,612.477a4.544,4.544,0,1,1,5.121-3.882A4.549,4.549,0,0,1,568.718,612.477Zm.958-6.961a2.482,2.482,0,1,0,2.121,2.8A2.485,2.485,0,0,0,569.677,605.516Z" transform="translate(-564.793 -603.431)" fill="#036"/>
      </g>
    </g>
    <path id="Path_83233" data-name="Path 83233" d="M518.867,508.457c3.435,1.76,6.995,3.43,10.9,2.89a18.588,18.588,0,0,0,3.808-1.011l.066.091a10.2,10.2,0,0,1-11.57.528,14.807,14.807,0,0,1-3.282-2.42l.08-.079Z" transform="translate(-13880.929 9291.733)" fill="#fc9c1d"/>
  </g>
</svg>
